<svg width="24" height="24" viewBox="0 0 24 24" fill="none" xmlns="http://www.w3.org/2000/svg">
<path fill-rule="evenodd" clip-rule="evenodd" d="M3.62326 1.00749C6.07757 1.21278 9.69643 2.45723 11.7737 3.79047L12.0329 3.95084C12.0452 3.95387 12.0657 3.95702 12.0912 3.95702C12.1151 3.95702 12.1347 3.95424 12.1472 3.95139L12.3105 3.84245C14.3881 2.49433 18.0246 1.23603 20.4795 1.01903C20.5088 1.01644 20.5382 1.01514 20.5676 1.01514H20.5936C22.4812 0.877883 24.0003 2.36061 24.0003 4.25389V17.8326C24.0003 19.3838 22.8068 20.8487 21.23 21.0519L21.2262 21.0524L20.8723 21.0967C18.6238 21.4063 15.0895 22.61 13.105 23.7381C12.7729 23.9325 12.4003 23.9992 12.0844 23.9992C11.7709 23.9992 11.4088 23.9337 11.0828 23.7534L11.0548 23.739C11.0437 23.7332 11.0327 23.7273 11.0218 23.7212C9.03571 22.6011 5.50135 21.4047 3.26015 21.0958L3.25585 21.0952L2.94538 21.051C1.37206 20.8443 0.182129 19.3815 0.182129 17.8326V4.24264C0.182129 2.35532 1.70516 0.842167 3.62326 1.00749ZM3.45216 3.00016C2.77463 2.94144 2.18213 3.45298 2.18213 4.24264V17.8326C2.18213 18.4415 2.69045 19.0016 3.20816 19.0683L3.22115 19.07L3.5332 19.1145C3.53389 19.1146 3.53459 19.1147 3.53528 19.1148C6.02237 19.458 9.78291 20.7306 11.9876 21.9697L12.0149 21.9838C12.0216 21.9873 12.0283 21.9908 12.0349 21.9944C12.0396 21.9955 12.0462 21.9966 12.0545 21.9976C12.0638 21.9986 12.0739 21.9992 12.0844 21.9992C12.0949 21.9992 12.1046 21.9986 12.1129 21.9977C12.1163 21.9973 12.1193 21.9969 12.1218 21.9965C14.3277 20.7438 18.1052 19.4575 20.6062 19.1144L20.6181 19.1128L20.9743 19.0683C20.9748 19.0683 20.9754 19.0682 20.9759 19.0681C21.4931 19.0004 22.0003 18.4409 22.0003 17.8326V4.25389C22.0003 3.46281 21.4064 2.95187 20.7194 3.01141C20.6907 3.0139 20.6619 3.01514 20.633 3.01514H20.613C18.4866 3.21437 15.1996 4.35397 13.4044 5.51688L13.2245 5.63696L13.2085 5.64738C12.8527 5.8751 12.4436 5.95702 12.0912 5.95702C11.7414 5.95702 11.3356 5.87629 10.9817 5.65232L10.7141 5.48677L10.6994 5.47748C8.89226 4.31533 5.57982 3.17779 3.4553 3.00043L3.45216 3.00016Z" fill="#C40C1A"/>
<path fill-rule="evenodd" clip-rule="evenodd" d="M12.0913 4.17627C12.6436 4.17627 13.0913 4.62398 13.0913 5.17627V22.0513C13.0913 22.6036 12.6436 23.0513 12.0913 23.0513C11.539 23.0513 11.0913 22.6036 11.0913 22.0513V5.17627C11.0913 4.62398 11.539 4.17627 12.0913 4.17627Z" fill="#C40C1A"/>
<path fill-rule="evenodd" clip-rule="evenodd" d="M4.00049 8.55127C4.00049 7.99898 4.4482 7.55127 5.00049 7.55127H7.45503C8.00732 7.55127 8.45503 7.99898 8.45503 8.55127C8.45503 9.10355 8.00732 9.55127 7.45503 9.55127H5.00049C4.4482 9.55127 4.00049 9.10355 4.00049 8.55127Z" fill="#C40C1A"/>
<path fill-rule="evenodd" clip-rule="evenodd" d="M4.00049 11.9263C4.00049 11.374 4.4482 10.9263 5.00049 10.9263H8.27322C8.8255 10.9263 9.27322 11.374 9.27322 11.9263C9.27322 12.4786 8.8255 12.9263 8.27322 12.9263H5.00049C4.4482 12.9263 4.00049 12.4786 4.00049 11.9263Z" fill="#C40C1A"/>
</svg>
