<svg width="23" height="24" viewBox="0 0 23 24" fill="none" xmlns="http://www.w3.org/2000/svg">
<path fill-rule="evenodd" clip-rule="evenodd" d="M0 1C0 0.447715 0.447715 0 1 0H21.5C22.0523 0 22.5 0.447715 22.5 1V3.85185C22.5 4.11891 22.3932 4.37488 22.2033 4.56271L15.5 11.1951V23C15.5 23.343 15.3242 23.6621 15.0342 23.8454C14.7442 24.0286 14.3805 24.0504 14.0707 23.9032L8.07072 21.0513C7.72212 20.8856 7.5 20.5341 7.5 20.1481V11.2155L0.321569 4.58652C0.116578 4.39722 0 4.13088 0 3.85185V1ZM2 2V3.41414L9.17843 10.0431C9.38342 10.2324 9.5 10.4988 9.5 10.7778V19.5162L13.5 21.4175V10.7778C13.5 10.5107 13.6068 10.2548 13.7967 10.0669L20.5 3.43452V2H2Z" fill="black"/>
</svg>
