<svg width="29" height="28" viewBox="0 0 29 28" fill="none" xmlns="http://www.w3.org/2000/svg">
<path d="M1 24.5L9.25676 15.6081V15.0693C9.25676 11.4817 11.2018 8.17616 14.3378 6.43389L10.527 2.90536L4.81081 4.81077L10.527 2.27023L14.973 6.08104H16.06C16.584 6.08104 17.0865 6.28919 17.4571 6.65972C17.8999 7.10253 18.1486 7.70313 18.1486 8.32937V9.25671L21.9595 13.7027L26.4054 11.1621L21.9595 14.3378L17.5135 9.61965L15.2143 10.9335C14.2796 11.4676 13.7027 12.4617 13.7027 13.5382V14.9729L17.5135 18.1486L12.4324 23.8648H11.7973L16.8784 18.1486L13.7027 15.6081H10.527L1.63514 24.5H1Z" fill="white"/>
<path d="M20.9419 1.81401L20.6344 2.06002C19.6856 2.81901 19.6856 4.26198 20.6344 5.02097C21.3887 5.62447 22.4763 5.56424 23.1594 4.88112L23.4378 4.60265C24.3 3.74051 24.1224 2.2977 23.0769 1.6704C22.4051 1.26737 21.5536 1.32464 20.9419 1.81401Z" fill="white"/>
<path fill-rule="evenodd" clip-rule="evenodd" d="M22.5624 2.5279C22.2491 2.33992 21.8519 2.36663 21.5666 2.59488L21.2591 2.8409C20.8108 3.19956 20.8108 3.88144 21.2591 4.2401C21.6156 4.52529 22.1295 4.49683 22.4523 4.17402L22.7308 3.89555C23.1329 3.49343 23.05 2.82048 22.5624 2.5279ZM20.3172 1.03314C21.2553 0.282661 22.5612 0.194822 23.5914 0.812917C25.1947 1.77493 25.4671 3.9876 24.145 5.30976L23.8665 5.58823C22.8231 6.63165 21.162 6.72365 20.0097 5.80184C18.5606 4.64253 18.5606 2.43847 20.0097 1.27916L20.3172 1.03314ZM10.1209 1.35642C10.4735 1.1997 10.8849 1.25985 11.1778 1.51097L15.3429 5.08104H16.06C16.8492 5.08104 17.6061 5.39456 18.1642 5.95261C18.7945 6.58297 19.1487 7.43792 19.1487 8.32937V8.88679L22.1809 12.4244L25.9093 10.2939C26.3718 10.0296 26.9602 10.1742 27.2475 10.6227C27.5348 11.0713 27.4201 11.6663 26.9867 11.9759L22.5407 15.1515C22.1338 15.4422 21.5747 15.3876 21.2317 15.0236L17.3259 10.8786L15.7104 11.8017C15.0873 12.1578 14.7027 12.8205 14.7027 13.5382V14.5046L18.1537 17.3804C18.3617 17.5537 18.4905 17.804 18.5107 18.074C18.531 18.344 18.4408 18.6106 18.2609 18.813L13.1799 24.5292C12.9901 24.7427 12.7181 24.8648 12.4325 24.8648H11.7973C11.4035 24.8648 11.0464 24.6337 10.8851 24.2745C10.7238 23.9152 10.7883 23.4948 11.0499 23.2005L15.4312 18.2715L13.3519 16.6081H10.9413L2.34226 25.2071C2.15473 25.3946 1.90037 25.5 1.63516 25.5H1.00002C0.602288 25.5 0.242365 25.2643 0.0833833 24.8997C-0.0755981 24.5351 -0.00341043 24.111 0.267228 23.8195L8.25678 15.2154V15.0693C8.25678 11.5742 9.93306 8.32226 12.7108 6.2902L10.2819 4.04119L5.12706 5.75945C4.6209 5.92817 4.07143 5.66981 3.8785 5.17238C3.68557 4.67494 3.91714 4.11365 4.40469 3.89696L10.1209 1.35642ZM15.2321 7.08104L14.8235 7.30805C12.1398 8.79899 10.4266 11.5637 10.2687 14.6081H12.7027V13.5382C12.7027 12.1028 13.4719 10.7774 14.7182 10.0653L17.1487 8.6764V8.32937C17.1487 7.96835 17.0053 7.62211 16.75 7.36683C16.567 7.18384 16.3188 7.08104 16.06 7.08104H15.2321Z" fill="white"/>
<path d="M1 24.5L9.25676 15.6081V15.0693C9.25676 11.4817 11.2018 8.17616 14.3378 6.43389L10.527 2.90536L4.81081 4.81077L10.527 2.27023L14.973 6.08104H16.06C16.584 6.08104 17.0865 6.28919 17.4571 6.65972C17.8999 7.10253 18.1486 7.70313 18.1486 8.32937V9.25671L21.9595 13.7027L26.4054 11.1621L21.9595 14.3378L17.5135 9.61965L15.2143 10.9335C14.2796 11.4676 13.7027 12.4617 13.7027 13.5382V14.9729L17.5135 18.1486L12.4324 23.8648H11.7973L16.8784 18.1486L13.7027 15.6081H10.527L1.63514 24.5H1Z" fill="white"/>
<path d="M20.9419 1.81401L20.6344 2.06002C19.6856 2.81901 19.6856 4.26198 20.6344 5.02097C21.3887 5.62447 22.4763 5.56424 23.1594 4.88112L23.4378 4.60265C24.3 3.74051 24.1224 2.2977 23.0769 1.6704C22.4051 1.26737 21.5536 1.32464 20.9419 1.81401Z" fill="white"/>
<path fill-rule="evenodd" clip-rule="evenodd" d="M22.5624 2.5279C22.2491 2.33992 21.8519 2.36663 21.5666 2.59488L21.2591 2.8409C20.8108 3.19956 20.8108 3.88144 21.2591 4.2401C21.6156 4.52529 22.1295 4.49683 22.4523 4.17402L22.7308 3.89555C23.1329 3.49343 23.05 2.82048 22.5624 2.5279ZM20.3172 1.03314C21.2553 0.282661 22.5612 0.194822 23.5914 0.812917C25.1947 1.77493 25.4671 3.9876 24.145 5.30976L23.8665 5.58823C22.8231 6.63165 21.162 6.72365 20.0097 5.80184C18.5606 4.64253 18.5606 2.43847 20.0097 1.27916L20.3172 1.03314ZM10.1209 1.35642C10.4735 1.1997 10.8849 1.25985 11.1778 1.51097L15.3429 5.08104H16.06C16.8492 5.08104 17.6061 5.39456 18.1642 5.95261C18.7945 6.58297 19.1487 7.43792 19.1487 8.32937V8.88679L22.1809 12.4244L25.9093 10.2939C26.3718 10.0296 26.9602 10.1742 27.2475 10.6227C27.5348 11.0713 27.4201 11.6663 26.9867 11.9759L22.5407 15.1515C22.1338 15.4422 21.5747 15.3876 21.2317 15.0236L17.3259 10.8786L15.7104 11.8017C15.0873 12.1578 14.7027 12.8205 14.7027 13.5382V14.5046L18.1537 17.3804C18.3617 17.5537 18.4905 17.804 18.5107 18.074C18.531 18.344 18.4408 18.6106 18.2609 18.813L13.1799 24.5292C12.9901 24.7427 12.7181 24.8648 12.4325 24.8648H11.7973C11.4035 24.8648 11.0464 24.6337 10.8851 24.2745C10.7238 23.9152 10.7883 23.4948 11.0499 23.2005L15.4312 18.2715L13.3519 16.6081H10.9413L2.34226 25.2071C2.15473 25.3946 1.90037 25.5 1.63516 25.5H1.00002C0.602288 25.5 0.242365 25.2643 0.0833833 24.8997C-0.0755981 24.5351 -0.00341043 24.111 0.267228 23.8195L8.25678 15.2154V15.0693C8.25678 11.5742 9.93306 8.32226 12.7108 6.2902L10.2819 4.04119L5.12706 5.75945C4.6209 5.92817 4.07143 5.66981 3.8785 5.17238C3.68557 4.67494 3.91714 4.11365 4.40469 3.89696L10.1209 1.35642ZM15.2321 7.08104L14.8235 7.30805C12.1398 8.79899 10.4266 11.5637 10.2687 14.6081H12.7027V13.5382C12.7027 12.1028 13.4719 10.7774 14.7182 10.0653L17.1487 8.6764V8.32937C17.1487 7.96835 17.0053 7.62211 16.75 7.36683C16.567 7.18384 16.3188 7.08104 16.06 7.08104H15.2321Z" fill="white"/>
</svg>
