<svg width="33" height="35" viewBox="0 0 33 35" fill="none" xmlns="http://www.w3.org/2000/svg">
<path fill-rule="evenodd" clip-rule="evenodd" d="M13.1523 0.210847C13.8762 -0.0130964 14.6409 -0.0594228 15.3852 0.0755661C16.1296 0.210555 16.833 0.523121 17.4394 0.988313C18.0458 1.45351 18.5383 2.05844 18.8776 2.75484C19.217 3.45123 19.3938 4.21979 19.3939 4.99918V29.3725C19.3938 30.1519 19.217 30.9205 18.8776 31.6169C18.5383 32.3132 18.0458 32.9182 17.4394 33.3834C16.833 33.8486 16.1296 34.1611 15.3852 34.2961C14.6409 34.4311 13.8762 34.3848 13.1523 34.1608L3.45535 31.1608C2.45673 30.8519 1.58127 30.2192 0.958839 29.3567C0.33641 28.4942 0.000170972 27.4477 0 26.3725V7.99918C0.000170972 6.92401 0.33641 5.87753 0.958839 5.01499C1.58127 4.15244 2.45673 3.51978 3.45535 3.21085L13.1523 0.210847ZM21.0101 3.85251C21.0101 3.41049 21.1804 2.98656 21.4835 2.674C21.7866 2.36144 22.1976 2.18585 22.6263 2.18585H27.4747C28.7606 2.18585 29.9939 2.71263 30.9031 3.65031C31.8124 4.588 32.3232 5.85976 32.3232 7.18585V8.85251C32.3232 9.29454 32.153 9.71846 31.8499 10.031C31.5468 10.3436 31.1357 10.5192 30.7071 10.5192C30.2784 10.5192 29.8674 10.3436 29.5643 10.031C29.2612 9.71846 29.0909 9.29454 29.0909 8.85251V7.18585C29.0909 6.74382 28.9206 6.3199 28.6175 6.00734C28.3145 5.69478 27.9034 5.51918 27.4747 5.51918H22.6263C22.1976 5.51918 21.7866 5.34359 21.4835 5.03102C21.1804 4.71846 21.0101 4.29454 21.0101 3.85251ZM30.7071 23.8525C31.1357 23.8525 31.5468 24.0281 31.8499 24.3407C32.153 24.6532 32.3232 25.0772 32.3232 25.5192V27.1858C32.3232 28.5119 31.8124 29.7837 30.9031 30.7214C29.9939 31.6591 28.7606 32.1858 27.4747 32.1858H22.6263C22.1976 32.1858 21.7866 32.0103 21.4835 31.6977C21.1804 31.3851 21.0101 30.9612 21.0101 30.5192C21.0101 30.0772 21.1804 29.6532 21.4835 29.3407C21.7866 29.0281 22.1976 28.8525 22.6263 28.8525H27.4747C27.9034 28.8525 28.3145 28.6769 28.6175 28.3644C28.9206 28.0518 29.0909 27.6279 29.0909 27.1858V25.5192C29.0909 25.0772 29.2612 24.6532 29.5643 24.3407C29.8674 24.0281 30.2784 23.8525 30.7071 23.8525ZM11.3131 15.5192C10.8845 15.5192 10.4734 15.6948 10.1703 16.0073C9.86724 16.3199 9.69697 16.7438 9.69697 17.1858C9.69697 17.6279 9.86724 18.0518 10.1703 18.3644C10.4734 18.6769 10.8845 18.8525 11.3131 18.8525H11.3147C11.7434 18.8525 12.1545 18.6769 12.4575 18.3644C12.7606 18.0518 12.9309 17.6279 12.9309 17.1858C12.9309 16.7438 12.7606 16.3199 12.4575 16.0073C12.1545 15.6948 11.7434 15.5192 11.3147 15.5192H11.3131Z" fill="white"/>
<path d="M30.707 17.1859L27.4747 20.5192M22.6262 17.1859H30.707H22.6262ZM30.707 17.1859L27.4747 13.8525L30.707 17.1859Z" stroke="#C40C1A" stroke-width="3.33333" stroke-linecap="round" stroke-linejoin="round"/>
</svg>
