<svg width="211" height="184" viewBox="0 0 211 184" fill="none" xmlns="http://www.w3.org/2000/svg">
<path d="M205.8 159.004C205.141 159.004 204.517 158.883 203.928 158.64C203.356 158.397 202.853 158.068 202.42 157.652C201.987 157.236 201.649 156.742 201.406 156.17C201.163 155.581 201.042 154.948 201.042 154.272C201.042 153.596 201.163 152.972 201.406 152.4C201.649 151.811 201.987 151.308 202.42 150.892C202.853 150.476 203.356 150.147 203.928 149.904C204.517 149.661 205.141 149.54 205.8 149.54C206.459 149.54 207.074 149.661 207.646 149.904C208.235 150.147 208.738 150.476 209.154 150.892C209.587 151.308 209.925 151.811 210.168 152.4C210.428 152.972 210.558 153.596 210.558 154.272C210.558 154.948 210.428 155.581 210.168 156.17C209.925 156.742 209.587 157.236 209.154 157.652C208.738 158.068 208.235 158.397 207.646 158.64C207.074 158.883 206.459 159.004 205.8 159.004ZM205.8 157.938C206.303 157.938 206.762 157.86 207.178 157.704C207.611 157.531 207.984 157.297 208.296 157.002C208.608 156.707 208.851 156.352 209.024 155.936C209.215 155.52 209.31 155.052 209.31 154.532V154.012C209.31 153.492 209.215 153.024 209.024 152.608C208.851 152.192 208.608 151.837 208.296 151.542C207.984 151.247 207.611 151.022 207.178 150.866C206.762 150.693 206.303 150.606 205.8 150.606C205.297 150.606 204.829 150.693 204.396 150.866C203.98 151.022 203.616 151.247 203.304 151.542C202.992 151.837 202.741 152.192 202.55 152.608C202.377 153.024 202.29 153.492 202.29 154.012V154.532C202.29 155.052 202.377 155.52 202.55 155.936C202.741 156.352 202.992 156.707 203.304 157.002C203.616 157.297 203.98 157.531 204.396 157.704C204.829 157.86 205.297 157.938 205.8 157.938ZM205.228 156.664H203.772V151.854H206.164C206.823 151.854 207.299 152.01 207.594 152.322C207.889 152.634 208.036 153.024 208.036 153.492C208.036 154.203 207.741 154.697 207.152 154.974L208.166 156.664H206.58L205.8 155.26H205.228V156.664ZM205.852 154.194C206.303 154.194 206.528 154.021 206.528 153.674V153.492C206.528 153.145 206.303 152.972 205.852 152.972H205.228V154.194H205.852Z" fill="#C40C1A"/>
<path d="M10.1958 178.498C8.22777 178.498 6.34377 178.222 4.54377 177.67C2.74377 177.094 1.31577 176.362 0.259766 175.474L1.87977 171.838C2.88777 172.63 4.13577 173.29 5.62377 173.818C7.11177 174.346 8.63577 174.61 10.1958 174.61C11.5158 174.61 12.5838 174.466 13.3998 174.178C14.2158 173.89 14.8158 173.506 15.1998 173.026C15.5838 172.522 15.7758 171.958 15.7758 171.334C15.7758 170.566 15.4998 169.954 14.9478 169.498C14.3958 169.018 13.6758 168.646 12.7878 168.382C11.9238 168.094 10.9518 167.83 9.87177 167.59C8.81577 167.35 7.74777 167.074 6.66777 166.762C5.61177 166.426 4.63977 166.006 3.75177 165.502C2.88777 164.974 2.17977 164.278 1.62777 163.414C1.07577 162.55 0.799766 161.446 0.799766 160.102C0.799766 158.734 1.15977 157.486 1.87977 156.358C2.62377 155.206 3.73977 154.294 5.22777 153.622C6.73977 152.926 8.64777 152.578 10.9518 152.578C12.4638 152.578 13.9638 152.77 15.4518 153.154C16.9398 153.538 18.2358 154.09 19.3398 154.81L17.8638 158.446C16.7358 157.774 15.5718 157.282 14.3718 156.97C13.1718 156.634 12.0198 156.466 10.9158 156.466C9.61977 156.466 8.56377 156.622 7.74777 156.934C6.95577 157.246 6.36777 157.654 5.98377 158.158C5.62377 158.662 5.44377 159.238 5.44377 159.886C5.44377 160.654 5.70777 161.278 6.23577 161.758C6.78777 162.214 7.49577 162.574 8.35977 162.838C9.24777 163.102 10.2318 163.366 11.3118 163.63C12.3918 163.87 13.4598 164.146 14.5158 164.458C15.5958 164.77 16.5678 165.178 17.4318 165.682C18.3198 166.186 19.0278 166.87 19.5558 167.734C20.1078 168.598 20.3838 169.69 20.3838 171.01C20.3838 172.354 20.0118 173.602 19.2678 174.754C18.5478 175.882 17.4318 176.794 15.9198 177.49C14.4078 178.162 12.4998 178.498 10.1958 178.498Z" fill="#C40C1A"/>
<path d="M29.6684 178.39C27.5564 178.39 25.9244 177.85 24.7724 176.77C23.6204 175.666 23.0444 174.046 23.0444 171.91V154.666H27.5444V171.802C27.5444 172.714 27.7724 173.422 28.2284 173.926C28.7084 174.43 29.3684 174.682 30.2084 174.682C31.2164 174.682 32.0564 174.418 32.7284 173.89L33.9884 177.094C33.4604 177.526 32.8124 177.85 32.0444 178.066C31.2764 178.282 30.4844 178.39 29.6684 178.39ZM19.8764 162.658V159.058H32.6924V162.658H19.8764Z" fill="#C40C1A"/>
<path d="M35.5302 178.138V158.914H39.8142V164.206L39.3102 162.658C39.8862 161.362 40.7862 160.378 42.0102 159.706C43.2582 159.034 44.8062 158.698 46.6542 158.698V162.982C46.4622 162.934 46.2822 162.91 46.1142 162.91C45.9462 162.886 45.7782 162.874 45.6102 162.874C43.9062 162.874 42.5502 163.378 41.5422 164.386C40.5342 165.37 40.0302 166.846 40.0302 168.814V178.138H35.5302Z" fill="#C40C1A"/>
<path d="M57.1718 178.39C55.0358 178.39 53.1638 177.97 51.5558 177.13C49.9718 176.266 48.7358 175.09 47.8478 173.602C46.9838 172.114 46.5518 170.422 46.5518 168.526C46.5518 166.606 46.9718 164.914 47.8118 163.45C48.6758 161.962 49.8518 160.798 51.3398 159.958C52.8518 159.118 54.5678 158.698 56.4878 158.698C58.3598 158.698 60.0278 159.106 61.4918 159.922C62.9558 160.738 64.1078 161.89 64.9478 163.378C65.7878 164.866 66.2078 166.618 66.2078 168.634C66.2078 168.826 66.1958 169.042 66.1718 169.282C66.1718 169.522 66.1598 169.75 66.1358 169.966H50.1158V166.978H63.7598L61.9958 167.914C62.0198 166.81 61.7918 165.838 61.3118 164.998C60.8318 164.158 60.1718 163.498 59.3318 163.018C58.5158 162.538 57.5678 162.298 56.4878 162.298C55.3838 162.298 54.4118 162.538 53.5718 163.018C52.7558 163.498 52.1078 164.17 51.6278 165.034C51.1718 165.874 50.9438 166.87 50.9438 168.022V168.742C50.9438 169.894 51.2078 170.914 51.7358 171.802C52.2638 172.69 53.0078 173.374 53.9678 173.854C54.9278 174.334 56.0318 174.574 57.2798 174.574C58.3598 174.574 59.3318 174.406 60.1958 174.07C61.0598 173.734 61.8278 173.206 62.4998 172.486L64.9118 175.258C64.0478 176.266 62.9558 177.046 61.6358 177.598C60.3398 178.126 58.8518 178.39 57.1718 178.39Z" fill="#C40C1A"/>
<path d="M74.3104 178.39C72.7024 178.39 71.1544 178.186 69.6664 177.778C68.2024 177.346 67.0384 176.83 66.1744 176.23L67.9024 172.81C68.7664 173.362 69.7984 173.818 70.9984 174.178C72.1984 174.538 73.3984 174.718 74.5984 174.718C76.0144 174.718 77.0344 174.526 77.6584 174.142C78.3064 173.758 78.6304 173.242 78.6304 172.594C78.6304 172.066 78.4144 171.67 77.9824 171.406C77.5504 171.118 76.9864 170.902 76.2904 170.758C75.5944 170.614 74.8144 170.482 73.9504 170.362C73.1104 170.242 72.2584 170.086 71.3944 169.894C70.5544 169.678 69.7864 169.378 69.0904 168.994C68.3944 168.586 67.8304 168.046 67.3984 167.374C66.9664 166.702 66.7504 165.814 66.7504 164.71C66.7504 163.486 67.0984 162.43 67.7944 161.542C68.4904 160.63 69.4624 159.934 70.7104 159.454C71.9824 158.95 73.4824 158.698 75.2104 158.698C76.5064 158.698 77.8144 158.842 79.1344 159.13C80.4544 159.418 81.5464 159.826 82.4104 160.354L80.6824 163.774C79.7704 163.222 78.8464 162.85 77.9104 162.658C76.9984 162.442 76.0864 162.334 75.1744 162.334C73.8064 162.334 72.7864 162.538 72.1144 162.946C71.4664 163.354 71.1424 163.87 71.1424 164.494C71.1424 165.07 71.3584 165.502 71.7904 165.79C72.2224 166.078 72.7864 166.306 73.4824 166.474C74.1784 166.642 74.9464 166.786 75.7864 166.906C76.6504 167.002 77.5024 167.158 78.3424 167.374C79.1824 167.59 79.9504 167.89 80.6464 168.274C81.3664 168.634 81.9424 169.15 82.3744 169.822C82.8064 170.494 83.0224 171.37 83.0224 172.45C83.0224 173.65 82.6624 174.694 81.9424 175.582C81.2464 176.47 80.2504 177.166 78.9544 177.67C77.6584 178.15 76.1104 178.39 74.3104 178.39Z" fill="#C40C1A"/>
<path d="M90.6777 178.39C89.0697 178.39 87.5217 178.186 86.0337 177.778C84.5697 177.346 83.4057 176.83 82.5417 176.23L84.2697 172.81C85.1337 173.362 86.1657 173.818 87.3657 174.178C88.5657 174.538 89.7657 174.718 90.9657 174.718C92.3817 174.718 93.4017 174.526 94.0257 174.142C94.6737 173.758 94.9977 173.242 94.9977 172.594C94.9977 172.066 94.7817 171.67 94.3497 171.406C93.9177 171.118 93.3537 170.902 92.6577 170.758C91.9617 170.614 91.1817 170.482 90.3177 170.362C89.4777 170.242 88.6257 170.086 87.7617 169.894C86.9217 169.678 86.1537 169.378 85.4577 168.994C84.7617 168.586 84.1977 168.046 83.7657 167.374C83.3337 166.702 83.1177 165.814 83.1177 164.71C83.1177 163.486 83.4657 162.43 84.1617 161.542C84.8577 160.63 85.8297 159.934 87.0777 159.454C88.3497 158.95 89.8497 158.698 91.5777 158.698C92.8737 158.698 94.1817 158.842 95.5017 159.13C96.8217 159.418 97.9137 159.826 98.7777 160.354L97.0497 163.774C96.1377 163.222 95.2137 162.85 94.2777 162.658C93.3657 162.442 92.4537 162.334 91.5417 162.334C90.1737 162.334 89.1537 162.538 88.4817 162.946C87.8337 163.354 87.5097 163.87 87.5097 164.494C87.5097 165.07 87.7257 165.502 88.1577 165.79C88.5897 166.078 89.1537 166.306 89.8497 166.474C90.5457 166.642 91.3137 166.786 92.1537 166.906C93.0177 167.002 93.8697 167.158 94.7097 167.374C95.5497 167.59 96.3177 167.89 97.0137 168.274C97.7337 168.634 98.3097 169.15 98.7417 169.822C99.1737 170.494 99.3897 171.37 99.3897 172.45C99.3897 173.65 99.0297 174.694 98.3097 175.582C97.6137 176.47 96.6177 177.166 95.3217 177.67C94.0257 178.15 92.4777 178.39 90.6777 178.39Z" fill="#C40C1A"/>
<path d="M106.649 178.138V156.898H98.297V152.938H119.681V156.898H111.329V178.138H106.649Z" fill="#C40C1A"/>
<path d="M127.273 178.39C125.305 178.39 123.553 177.97 122.017 177.13C120.481 176.266 119.269 175.09 118.381 173.602C117.493 172.114 117.049 170.422 117.049 168.526C117.049 166.606 117.493 164.914 118.381 163.45C119.269 161.962 120.481 160.798 122.017 159.958C123.553 159.118 125.305 158.698 127.273 158.698C129.265 158.698 131.029 159.118 132.565 159.958C134.125 160.798 135.337 161.95 136.201 163.414C137.089 164.878 137.533 166.582 137.533 168.526C137.533 170.422 137.089 172.114 136.201 173.602C135.337 175.09 134.125 176.266 132.565 177.13C131.029 177.97 129.265 178.39 127.273 178.39ZM127.273 174.538C128.377 174.538 129.361 174.298 130.225 173.818C131.089 173.338 131.761 172.642 132.241 171.73C132.745 170.818 132.997 169.75 132.997 168.526C132.997 167.278 132.745 166.21 132.241 165.322C131.761 164.41 131.089 163.714 130.225 163.234C129.361 162.754 128.389 162.514 127.309 162.514C126.205 162.514 125.221 162.754 124.357 163.234C123.517 163.714 122.845 164.41 122.341 165.322C121.837 166.21 121.585 167.278 121.585 168.526C121.585 169.75 121.837 170.818 122.341 171.73C122.845 172.642 123.517 173.338 124.357 173.818C125.221 174.298 126.193 174.538 127.273 174.538Z" fill="#C40C1A"/>
<path d="M147.812 178.39C146.18 178.39 144.74 178.09 143.492 177.49C142.244 176.866 141.272 175.93 140.576 174.682C139.88 173.41 139.532 171.814 139.532 169.894V158.914H144.032V169.282C144.032 171.01 144.416 172.306 145.184 173.17C145.976 174.01 147.092 174.43 148.532 174.43C149.588 174.43 150.5 174.214 151.268 173.782C152.06 173.35 152.672 172.702 153.104 171.838C153.56 170.974 153.788 169.906 153.788 168.634V158.914H158.288V178.138H154.004V172.954L154.76 174.538C154.112 175.786 153.164 176.746 151.916 177.418C150.668 178.066 149.3 178.39 147.812 178.39Z" fill="#C40C1A"/>
<path d="M170.84 178.39C168.824 178.39 167.024 177.97 165.44 177.13C163.88 176.266 162.656 175.09 161.768 173.602C160.88 172.114 160.436 170.422 160.436 168.526C160.436 166.606 160.88 164.914 161.768 163.45C162.656 161.962 163.88 160.798 165.44 159.958C167.024 159.118 168.824 158.698 170.84 158.698C172.712 158.698 174.356 159.082 175.772 159.85C177.212 160.594 178.304 161.698 179.048 163.162L175.592 165.178C175.016 164.266 174.308 163.594 173.468 163.162C172.652 162.73 171.764 162.514 170.804 162.514C169.7 162.514 168.704 162.754 167.816 163.234C166.928 163.714 166.232 164.41 165.728 165.322C165.224 166.21 164.972 167.278 164.972 168.526C164.972 169.774 165.224 170.854 165.728 171.766C166.232 172.654 166.928 173.338 167.816 173.818C168.704 174.298 169.7 174.538 170.804 174.538C171.764 174.538 172.652 174.322 173.468 173.89C174.308 173.458 175.016 172.786 175.592 171.874L179.048 173.89C178.304 175.33 177.212 176.446 175.772 177.238C174.356 178.006 172.712 178.39 170.84 178.39Z" fill="#C40C1A"/>
<path d="M191.51 158.698C193.046 158.698 194.414 158.998 195.614 159.598C196.838 160.198 197.798 161.122 198.494 162.37C199.19 163.594 199.538 165.178 199.538 167.122V178.138H195.038V167.698C195.038 165.994 194.63 164.722 193.814 163.882C193.022 163.042 191.906 162.622 190.466 162.622C189.41 162.622 188.474 162.838 187.658 163.27C186.842 163.702 186.206 164.35 185.75 165.214C185.318 166.054 185.102 167.122 185.102 168.418V178.138H180.602V151.426H185.102V164.098L184.13 162.514C184.802 161.29 185.774 160.354 187.046 159.706C188.342 159.034 189.83 158.698 191.51 158.698Z" fill="#C40C1A"/>
<path d="M174 93.5C174 130.779 142.66 161 104 161C65.3401 161 34 130.779 34 93.5C34 56.2208 65.3401 26 104 26C142.66 26 174 56.2208 174 93.5Z" fill="url(#paint0_radial_758_1905)" fill-opacity="0.6"/>
<path d="M161.483 93.0528C161.483 123.913 135.54 148.93 103.536 148.93C71.5331 148.93 45.5894 123.913 45.5894 93.0528C45.5894 62.1925 71.5331 37.1753 103.536 37.1753C135.54 37.1753 161.483 62.1925 161.483 93.0528Z" fill="url(#paint1_radial_758_1905)" fill-opacity="0.5"/>
<path d="M144.331 91.9348C144.331 113.784 125.963 131.496 103.305 131.496C80.6465 131.496 62.2783 113.784 62.2783 91.9348C62.2783 70.0857 80.6465 52.3735 103.305 52.3735C125.963 52.3735 144.331 70.0857 144.331 91.9348Z" fill="url(#paint2_radial_758_1905)"/>
<path d="M144.331 91.9348C144.331 113.784 125.963 131.496 103.305 131.496C80.6465 131.496 62.2783 113.784 62.2783 91.9348C62.2783 70.0857 80.6465 52.3735 103.305 52.3735C125.963 52.3735 144.331 70.0857 144.331 91.9348Z" fill="#AB0006"/>
<path fill-rule="evenodd" clip-rule="evenodd" d="M103.305 131.013C125.713 131.013 143.849 113.501 143.849 91.9348C143.849 70.3686 125.713 52.8561 103.305 52.8561C80.8963 52.8561 62.7609 70.3686 62.7609 91.9348C62.7609 113.501 80.8963 131.013 103.305 131.013ZM103.305 131.496C125.963 131.496 144.331 113.784 144.331 91.9348C144.331 70.0857 125.963 52.3735 103.305 52.3735C80.6465 52.3735 62.2783 70.0857 62.2783 91.9348C62.2783 113.784 80.6465 131.496 103.305 131.496Z" fill="#D33E5F" fill-opacity="0.13"/>
<path d="M144.331 91.9348C144.331 113.784 125.963 131.496 103.305 131.496C80.6465 131.496 62.2783 113.784 62.2783 91.9348C62.2783 70.0857 80.6465 52.3735 103.305 52.3735C125.963 52.3735 144.331 70.0857 144.331 91.9348Z" fill="url(#paint3_radial_758_1905)"/>
<path d="M144.331 91.9348C144.331 113.784 125.963 131.496 103.305 131.496C80.6465 131.496 62.2783 113.784 62.2783 91.9348C62.2783 70.0857 80.6465 52.3735 103.305 52.3735C125.963 52.3735 144.331 70.0857 144.331 91.9348Z" fill="url(#paint4_linear_758_1905)" fill-opacity="0.9"/>
<path fill-rule="evenodd" clip-rule="evenodd" d="M103.305 130.982C125.697 130.982 143.817 113.482 143.817 91.9348C143.817 70.3874 125.697 52.8881 103.305 52.8881C80.9129 52.8881 62.7929 70.3874 62.7929 91.9348C62.7929 113.482 80.9129 130.982 103.305 130.982ZM103.305 131.496C125.963 131.496 144.331 113.784 144.331 91.9348C144.331 70.0857 125.963 52.3735 103.305 52.3735C80.6465 52.3735 62.2783 70.0857 62.2783 91.9348C62.2783 113.784 80.6465 131.496 103.305 131.496Z" fill="#D33E5F" fill-opacity="0.13"/>
<path d="M138.096 92.0577C138.096 110.518 122.577 125.484 103.432 125.484C84.2881 125.484 68.7686 110.518 68.7686 92.0577C68.7686 73.5971 84.2881 58.6318 103.432 58.6318C122.577 58.6318 138.096 73.5971 138.096 92.0577Z" fill="url(#paint5_radial_758_1905)"/>
<path d="M138.096 92.0577C138.096 110.518 122.577 125.484 103.432 125.484C84.2881 125.484 68.7686 110.518 68.7686 92.0577C68.7686 73.5971 84.2881 58.6318 103.432 58.6318C122.577 58.6318 138.096 73.5971 138.096 92.0577Z" fill="url(#paint6_radial_758_1905)" fill-opacity="0.76"/>
<path d="M138.096 92.0577C138.096 110.518 122.577 125.484 103.432 125.484C84.2881 125.484 68.7686 110.518 68.7686 92.0577C68.7686 73.5971 84.2881 58.6318 103.432 58.6318C122.577 58.6318 138.096 73.5971 138.096 92.0577Z" fill="url(#paint7_radial_758_1905)"/>
<g filter="url(#filter0_f_758_1905)">
<path d="M138.096 92.0577C138.096 110.518 122.577 125.484 103.432 125.484C84.2881 125.484 68.7686 110.518 68.7686 92.0577C68.7686 73.5971 84.2881 58.6318 103.432 58.6318C122.577 58.6318 138.096 73.5971 138.096 92.0577Z" fill="url(#paint8_radial_758_1905)"/>
<path d="M138.096 92.0577C138.096 110.518 122.577 125.484 103.432 125.484C84.2881 125.484 68.7686 110.518 68.7686 92.0577C68.7686 73.5971 84.2881 58.6318 103.432 58.6318C122.577 58.6318 138.096 73.5971 138.096 92.0577Z" fill="url(#paint9_radial_758_1905)" fill-opacity="0.8"/>
<path d="M138.096 92.0577C138.096 110.518 122.577 125.484 103.432 125.484C84.2881 125.484 68.7686 110.518 68.7686 92.0577C68.7686 73.5971 84.2881 58.6318 103.432 58.6318C122.577 58.6318 138.096 73.5971 138.096 92.0577Z" fill="url(#paint10_radial_758_1905)" fill-opacity="0.36"/>
</g>
<g filter="url(#filter1_d_758_1905)">
<path fill-rule="evenodd" clip-rule="evenodd" d="M85.3159 76.1053C89.6401 71.8803 96.651 71.8803 100.975 76.1053L103.015 78.0981L105.054 76.1053C109.379 71.8803 116.39 71.8803 120.714 76.1053C125.038 80.3303 125.038 86.7333 120.714 90.9583L103.015 108.251L85.3159 90.9583C80.9917 86.7333 80.9917 80.3303 85.3159 76.1053Z" fill="#DE141B"/>
<path fill-rule="evenodd" clip-rule="evenodd" d="M85.3159 76.1053C89.6401 71.8803 96.651 71.8803 100.975 76.1053L103.015 78.0981L105.054 76.1053C109.379 71.8803 116.39 71.8803 120.714 76.1053C125.038 80.3303 125.038 86.7333 120.714 90.9583L103.015 108.251L85.3159 90.9583C80.9917 86.7333 80.9917 80.3303 85.3159 76.1053Z" fill="url(#paint11_linear_758_1905)"/>
<path fill-rule="evenodd" clip-rule="evenodd" d="M85.3159 76.1053C89.6401 71.8803 96.651 71.8803 100.975 76.1053L103.015 78.0981L105.054 76.1053C109.379 71.8803 116.39 71.8803 120.714 76.1053C125.038 80.3303 125.038 86.7333 120.714 90.9583L103.015 108.251L85.3159 90.9583C80.9917 86.7333 80.9917 80.3303 85.3159 76.1053Z" fill="url(#paint12_linear_758_1905)"/>
<path fill-rule="evenodd" clip-rule="evenodd" d="M85.3159 76.1053C89.6401 71.8803 96.651 71.8803 100.975 76.1053L103.015 78.0981L105.054 76.1053C109.379 71.8803 116.39 71.8803 120.714 76.1053C125.038 80.3303 125.038 86.7333 120.714 90.9583L103.015 108.251L85.3159 90.9583C80.9917 86.7333 80.9917 80.3303 85.3159 76.1053Z" fill="url(#paint13_diamond_758_1905)" fill-opacity="0.63" style="mix-blend-mode:color-dodge"/>
<path fill-rule="evenodd" clip-rule="evenodd" d="M85.3159 76.1053C89.6401 71.8803 96.651 71.8803 100.975 76.1053L103.015 78.0981L105.054 76.1053C109.379 71.8803 116.39 71.8803 120.714 76.1053C125.038 80.3303 125.038 86.7333 120.714 90.9583L103.015 108.251L85.3159 90.9583C80.9917 86.7333 80.9917 80.3303 85.3159 76.1053Z" fill="url(#paint14_diamond_758_1905)" fill-opacity="0.28" style="mix-blend-mode:color-dodge"/>
<path fill-rule="evenodd" clip-rule="evenodd" d="M85.3159 76.1053C89.6401 71.8803 96.651 71.8803 100.975 76.1053L103.015 78.0981L105.054 76.1053C109.379 71.8803 116.39 71.8803 120.714 76.1053C125.038 80.3303 125.038 86.7333 120.714 90.9583L103.015 108.251L85.3159 90.9583C80.9917 86.7333 80.9917 80.3303 85.3159 76.1053Z" fill="url(#paint15_radial_758_1905)"/>
<path fill-rule="evenodd" clip-rule="evenodd" d="M103.015 78.0981L100.975 76.1053C96.651 71.8803 89.6401 71.8803 85.3159 76.1053C80.9917 80.3303 80.9917 86.7333 85.3159 90.9583L103.015 108.251L120.714 90.9583C125.038 86.7333 125.038 80.3303 120.714 76.1053C116.39 71.8803 109.379 71.8803 105.054 76.1053L103.015 78.0981ZM103.015 101.483L117.331 87.4956C119.711 85.1699 119.711 81.8937 117.331 79.5679C114.887 77.1808 110.881 77.1808 108.438 79.5679L106.398 81.5607C104.517 83.3986 101.513 83.3986 99.6316 81.5607L97.592 79.5679C95.1489 77.1808 91.1423 77.1808 88.6991 79.5679C86.3187 81.8937 86.3187 85.1699 88.6991 87.4956L103.015 101.483Z" fill="url(#paint16_linear_758_1905)" fill-opacity="0.01"/>
</g>
<path d="M111.074 100.569L111.074 99.8159C111.074 98.1145 109.702 96.7319 108 96.72L106.286 96.7079C105.977 96.7057 105.671 96.6537 105.379 96.5538C105.058 96.4443 104.76 96.2789 104.498 96.0653L104.106 95.7467C103.615 95.3477 103.237 94.8285 103.007 94.2396C102.837 93.8068 102.752 93.3457 102.755 92.8809L102.764 91.6367C102.768 91.0884 102.934 90.5534 103.24 90.0989C103.343 89.9471 103.46 89.8058 103.591 89.677L103.884 89.3868C104.178 89.0959 104.518 88.8544 104.889 88.6717C105.336 88.4514 105.829 88.3385 106.328 88.342L107.91 88.3531C109.519 88.3644 110.833 87.0689 110.844 85.4595L110.854 84.0972C110.857 83.6461 110.933 83.1984 111.078 82.7713C111.142 82.5832 111.219 82.3998 111.309 82.2226L111.319 82.2033C111.636 81.5788 112.094 81.0367 112.657 80.6198L112.733 80.563C112.94 80.4099 113.16 80.2757 113.391 80.1621L113.397 80.1589C113.575 80.0714 113.759 79.9966 113.947 79.9351C114.376 79.7953 114.824 79.7257 115.274 79.7289L115.459 79.7302C115.91 79.7334 116.357 79.8093 116.783 79.955C116.971 80.0192 117.153 80.0965 117.33 80.1866L117.336 80.1899C117.565 80.3068 117.784 80.444 117.988 80.6L118.064 80.6579C118.621 81.0827 119.071 81.6312 119.379 82.26L119.389 82.2795C119.476 82.4579 119.551 82.6424 119.612 82.8314C119.752 83.2605 119.821 83.7092 119.818 84.1603L119.806 85.8815C119.795 87.3761 120.821 88.679 122.276 89.0205L122.311 89.0288L122.08 89.4758C121.771 89.9217 121.419 90.3355 121.028 90.7108L119.52 92.158L117.663 93.9461L114.301 97.3493L112.517 99.138L111.074 100.569Z" fill="url(#paint17_radial_758_1905)" fill-opacity="0.11"/>
<path d="M111.074 100.569L111.074 99.8159C111.074 98.1145 109.702 96.7319 108 96.72L106.286 96.7079C105.977 96.7057 105.671 96.6537 105.379 96.5538C105.058 96.4443 104.76 96.2789 104.498 96.0653L104.106 95.7467C103.615 95.3477 103.237 94.8285 103.007 94.2396C102.837 93.8068 102.752 93.3457 102.755 92.8809L102.764 91.6367C102.768 91.0884 102.934 90.5534 103.24 90.0989C103.343 89.9471 103.46 89.8058 103.591 89.677L103.884 89.3868C104.178 89.0959 104.518 88.8544 104.889 88.6717C105.336 88.4514 105.829 88.3385 106.328 88.342L107.91 88.3531C109.519 88.3644 110.833 87.0689 110.844 85.4595L110.854 84.0972C110.857 83.6461 110.933 83.1984 111.078 82.7713C111.142 82.5832 111.219 82.3998 111.309 82.2226L111.319 82.2033C111.636 81.5788 112.094 81.0367 112.657 80.6198L112.733 80.563C112.94 80.4099 113.16 80.2757 113.391 80.1621L113.397 80.1589C113.575 80.0714 113.759 79.9966 113.947 79.9351C114.376 79.7953 114.824 79.7257 115.274 79.7289L115.459 79.7302C115.91 79.7334 116.357 79.8093 116.783 79.955C116.971 80.0192 117.153 80.0965 117.33 80.1866L117.336 80.1899C117.565 80.3068 117.784 80.444 117.988 80.6L118.064 80.6579C118.621 81.0827 119.071 81.6312 119.379 82.26L119.389 82.2795C119.476 82.4579 119.551 82.6424 119.612 82.8314C119.752 83.2605 119.821 83.7092 119.818 84.1603L119.806 85.8815C119.795 87.3761 120.821 88.679 122.276 89.0205L122.311 89.0288L122.08 89.4758C121.771 89.9217 121.419 90.3355 121.028 90.7108L119.52 92.158L117.663 93.9461L114.301 97.3493L112.517 99.138L111.074 100.569Z" fill="url(#paint18_radial_758_1905)"/>
<path d="M112.016 99.4583L112.016 95.5111C112.017 95.3722 111.905 95.259 111.766 95.259L107.709 95.259C107.186 95.2146 106.688 95.0137 106.281 94.6824L106.232 94.6422C105.854 94.3349 105.562 93.9351 105.385 93.4816L105.37 93.4438C105.232 93.0906 105.163 92.7143 105.166 92.3352L105.171 91.7707C105.175 91.3247 105.31 90.8898 105.56 90.5202C105.643 90.3964 105.739 90.2811 105.845 90.1761L106.084 89.9404C106.323 89.7036 106.599 89.507 106.902 89.3582C107.266 89.179 107.666 89.0871 108.072 89.0898L110.842 89.1082C111.468 89.1124 111.978 88.6061 111.978 87.9801L111.978 85.4091C111.978 85.1907 111.982 84.9719 112.02 84.7568C112.072 84.464 112.184 84.0251 112.424 83.6651C112.719 83.2217 113.111 82.887 113.343 82.711C113.47 82.6144 113.61 82.537 113.753 82.4664L113.828 82.4299C113.971 82.3593 114.119 82.2989 114.271 82.2493L114.341 82.2267C114.644 82.1275 114.962 82.0788 115.282 82.0824C115.489 82.0847 115.695 82.109 115.897 82.1548L116.014 82.1814C116.431 82.2759 116.834 82.4302 117.169 82.695C117.401 82.8786 117.67 83.1203 117.891 83.3969C118.149 83.7192 118.28 84.0391 118.339 84.2212C118.372 84.3222 118.396 84.4259 118.424 84.5283C118.535 84.9294 118.589 85.3438 118.586 85.7599L118.57 88.0439C118.566 88.665 119.065 89.1728 119.686 89.1799L122.172 89.2081C122.172 89.2081 121.839 89.6999 121.649 89.9234C121.395 90.2452 120.974 90.7191 120.629 91.0409C119.712 91.9781 118.38 93.2612 117.985 93.6403C117.908 93.7135 117.832 93.7869 117.757 93.8607L112.016 99.4583Z" fill="#FDF8F8"/>
<g opacity="0.65" filter="url(#filter2_f_758_1905)">
<path fill-rule="evenodd" clip-rule="evenodd" d="M96.9548 112.721C96.9548 112.721 96.7246 97.0755 96.9548 93.4994C97.0279 92.3635 98.3141 91.4878 99.4856 91.4878C100.657 91.4878 101.944 92.3635 102.017 93.4994C102.247 97.0755 102.017 105.569 102.017 105.569V109.369H102.247V105.569V105.48C102.247 105.122 103.408 104.362 104.547 104.362C106.618 104.362 107.078 105.569 107.078 105.569V109.369H107.308V105.569C107.325 105.552 107.29 105.588 107.308 105.569C107.539 105.122 108.423 104.451 109.609 104.451C110.99 104.451 111.91 105.264 111.91 106.239V107.983V109.369H112.14V108.698V108.251C112.14 108.251 112.14 107.804 112.149 107.804C112.149 107.581 113.025 106.91 114.211 106.91C115.315 106.91 116.282 107.499 116.282 108.475V116.744C116.282 116.744 116.304 118.149 116.236 118.756C116.044 120.465 115.915 120.923 114.901 122.332C114.609 122.739 114.309 123.011 114.015 123.279C113.686 123.579 113.362 123.873 113.061 124.344C112.593 125.074 112.367 125.524 112.14 126.355H98.1052C97.8791 125.669 97.6019 125.273 97.2394 124.756C97.1499 124.628 97.0552 124.493 96.9548 124.344C96.686 123.945 96.4289 123.661 96.1749 123.381C95.8981 123.075 95.625 122.774 95.3442 122.332C94.6014 121.165 94.5959 121.152 94.2589 120.347C94.182 120.164 94.0878 119.939 93.9637 119.65C93.8415 119.366 93.6899 119.045 93.5368 118.722C93.3596 118.347 93.1806 117.969 93.0434 117.638C92.9402 117.39 92.9112 117.32 92.8843 117.249C92.8738 117.222 92.8636 117.194 92.8495 117.156C92.7991 117.018 92.6982 116.744 92.3531 115.85C91.9418 114.785 90.9726 113.392 90.9726 113.392C90.9726 113.392 90.0523 112.274 88.6718 110.71C87.9677 109.912 88.1779 108.809 88.9019 108.028C89.2525 107.649 89.5589 107.528 90.0523 107.357C91.3467 106.908 92.8133 107.804 93.5035 108.475C94.884 109.816 96.9548 112.721 96.9548 112.721ZM107.301 105.438C107.304 105.504 107.306 105.571 107.308 105.569L107.301 105.438ZM107.301 105.436C107.299 105.371 107.297 105.307 107.294 105.31L107.301 105.436Z" fill="#D50033"/>
</g>
<g opacity="0.6" filter="url(#filter3_f_758_1905)">
<path fill-rule="evenodd" clip-rule="evenodd" d="M96.9548 112.721C96.9548 112.721 96.7246 97.0755 96.9548 93.4994C97.0279 92.3635 98.3141 91.4878 99.4856 91.4878C100.657 91.4878 101.944 92.3635 102.017 93.4994C102.247 97.0755 102.017 105.569 102.017 105.569V109.369H102.247V105.569V105.48C102.247 105.122 103.408 104.362 104.547 104.362C106.618 104.362 107.078 105.569 107.078 105.569V109.369H107.308V105.569C107.325 105.552 107.29 105.588 107.308 105.569C107.539 105.122 108.423 104.451 109.609 104.451C110.99 104.451 111.91 105.264 111.91 106.239V107.983V109.369H112.14V108.698V108.251C112.14 108.251 112.14 107.804 112.149 107.804C112.149 107.581 113.025 106.91 114.211 106.91C115.315 106.91 116.282 107.499 116.282 108.475V116.744C116.282 116.744 116.304 118.149 116.236 118.756C116.044 120.465 115.915 120.923 114.901 122.332C114.609 122.739 114.309 123.011 114.015 123.279C113.686 123.579 113.362 123.873 113.061 124.344C112.593 125.074 112.377 123.513 112.149 124.344L98.4101 124.756C98.1839 124.069 97.6019 125.273 97.2394 124.756C97.1499 124.628 97.0552 124.493 96.9548 124.344C96.686 123.945 96.4289 123.661 96.1749 123.381C95.8981 123.075 95.625 122.774 95.3442 122.332C94.6014 121.165 94.5959 121.152 94.2589 120.347C94.182 120.164 94.0878 119.939 93.9637 119.65C93.8415 119.366 93.6899 119.045 93.5368 118.722C93.3596 118.347 93.1806 117.969 93.0434 117.638C92.9402 117.39 92.9112 117.32 92.8843 117.249C92.8738 117.222 92.8636 117.194 92.8495 117.156C92.7991 117.019 92.6982 116.744 92.3531 115.85C91.9418 114.785 90.9726 113.392 90.9726 113.392C90.9726 113.392 90.0523 112.274 88.6718 110.71C87.9677 109.912 88.1779 108.809 88.9019 108.028C89.2525 107.649 89.5589 107.528 90.0523 107.357C91.3467 106.908 92.8133 107.804 93.5035 108.475C94.884 109.816 96.9548 112.721 96.9548 112.721ZM107.301 105.438C107.304 105.504 107.306 105.571 107.308 105.569L107.301 105.438ZM107.301 105.436C107.299 105.371 107.297 105.307 107.294 105.31L107.301 105.436Z" fill="#FB8377"/>
</g>
<path fill-rule="evenodd" clip-rule="evenodd" d="M96.9548 112.721C96.9548 112.721 96.7246 97.9696 96.9548 94.3934C97.0279 93.2576 98.3141 92.3818 99.4856 92.3818C100.657 92.3818 101.944 93.2576 102.017 94.3934C102.247 97.9696 102.017 105.569 102.017 105.569V109.369H102.247V105.569V105.48C102.247 105.122 103.408 104.362 104.547 104.362C106.618 104.362 107.078 105.569 107.078 105.569V109.369H107.308V105.569C107.325 105.552 107.29 105.588 107.308 105.569C107.539 105.122 108.423 104.451 109.609 104.451C110.99 104.451 111.91 105.264 111.91 106.239V107.983V109.369H112.14V108.698V108.251C112.14 108.251 112.14 107.804 112.149 107.804C112.149 107.735 112.233 107.612 112.382 107.491C112.719 107.219 113.391 106.91 114.211 106.91C115.315 106.91 116.282 107.499 116.282 108.475V116.744C116.282 116.744 116.304 118.149 116.236 118.756C116.044 120.465 115.676 120.923 114.663 122.332C114.37 122.739 113.967 123.239 113.735 123.45C113.406 123.749 113.239 123.819 113.04 124.12C112.937 124.277 112.994 124.201 112.994 124.201C112.994 124.201 109.1 125.238 104.928 125.461C100.755 125.685 97.2785 124.961 97.2785 124.961C97.189 124.833 97.0552 124.493 96.9548 124.344C96.686 123.945 96.4289 123.661 96.1749 123.381C95.8981 123.075 95.625 122.774 95.3442 122.332C94.6014 121.165 94.5959 121.152 94.2589 120.347C94.182 120.164 94.0878 119.939 93.9637 119.65C93.8415 119.366 93.6899 119.045 93.5368 118.722C93.3596 118.347 93.1806 117.969 93.0434 117.638C92.9402 117.39 92.9112 117.32 92.8843 117.249C92.8738 117.222 92.8636 117.194 92.8495 117.156C92.7991 117.019 92.6982 116.744 92.3531 115.85C91.9418 114.785 90.9726 113.392 90.9726 113.392C90.9726 113.392 90.0523 112.274 88.6718 110.71C87.9677 109.912 88.1779 108.809 88.9019 108.028C89.2525 107.649 89.5589 107.528 90.0523 107.357C91.3467 106.908 92.8133 107.804 93.5035 108.475C94.884 109.816 96.9548 112.721 96.9548 112.721ZM107.301 105.438C107.304 105.504 107.306 105.571 107.308 105.569L107.301 105.438ZM107.301 105.436C107.299 105.371 107.297 105.307 107.294 105.31L107.301 105.436Z" fill="#FDF9F9"/>
<path d="M114.211 106.91C113.391 106.91 112.719 107.219 112.382 107.491C112.652 107.232 113.197 106.91 114.211 106.91Z" fill="#FDF9F9"/>
<defs>
<filter id="filter0_f_758_1905" x="10.7686" y="0.631836" width="185.328" height="182.852" filterUnits="userSpaceOnUse" color-interpolation-filters="sRGB">
<feFlood flood-opacity="0" result="BackgroundImageFix"/>
<feBlend mode="normal" in="SourceGraphic" in2="BackgroundImageFix" result="shape"/>
<feGaussianBlur stdDeviation="29" result="effect1_foregroundBlur_758_1905"/>
</filter>
<filter id="filter1_d_758_1905" x="70.239" y="63.2544" width="65.5518" height="58.9819" filterUnits="userSpaceOnUse" color-interpolation-filters="sRGB">
<feFlood flood-opacity="0" result="BackgroundImageFix"/>
<feColorMatrix in="SourceAlpha" type="matrix" values="0 0 0 0 0 0 0 0 0 0 0 0 0 0 0 0 0 0 127 0" result="hardAlpha"/>
<feOffset dy="2.15159"/>
<feGaussianBlur stdDeviation="5.91687"/>
<feComposite in2="hardAlpha" operator="out"/>
<feColorMatrix type="matrix" values="0 0 0 0 1 0 0 0 0 1 0 0 0 0 1 0 0 0 0.33 0"/>
<feBlend mode="normal" in2="BackgroundImageFix" result="effect1_dropShadow_758_1905"/>
<feBlend mode="normal" in="SourceGraphic" in2="effect1_dropShadow_758_1905" result="shape"/>
</filter>
<filter id="filter2_f_758_1905" x="78.2388" y="81.4878" width="48.0464" height="54.8677" filterUnits="userSpaceOnUse" color-interpolation-filters="sRGB">
<feFlood flood-opacity="0" result="BackgroundImageFix"/>
<feBlend mode="normal" in="SourceGraphic" in2="BackgroundImageFix" result="shape"/>
<feGaussianBlur stdDeviation="5" result="effect1_foregroundBlur_758_1905"/>
</filter>
<filter id="filter3_f_758_1905" x="78.2388" y="81.4878" width="48.0464" height="53.4014" filterUnits="userSpaceOnUse" color-interpolation-filters="sRGB">
<feFlood flood-opacity="0" result="BackgroundImageFix"/>
<feBlend mode="normal" in="SourceGraphic" in2="BackgroundImageFix" result="shape"/>
<feGaussianBlur stdDeviation="5" result="effect1_foregroundBlur_758_1905"/>
</filter>
<radialGradient id="paint0_radial_758_1905" cx="0" cy="0" r="1" gradientUnits="userSpaceOnUse" gradientTransform="translate(104 93.5) rotate(90) scale(64.1474 66.5232)">
<stop stop-color="#DE141B"/>
<stop offset="0.932575" stop-color="#DE141B" stop-opacity="0"/>
</radialGradient>
<radialGradient id="paint1_radial_758_1905" cx="0" cy="0" r="1" gradientUnits="userSpaceOnUse" gradientTransform="translate(103.536 93.0528) rotate(90) scale(53.1021 55.0689)">
<stop stop-color="#DE141B"/>
<stop offset="0.932575" stop-color="#DE141B" stop-opacity="0"/>
</radialGradient>
<radialGradient id="paint2_radial_758_1905" cx="0" cy="0" r="1" gradientUnits="userSpaceOnUse" gradientTransform="translate(103.305 91.9348) rotate(90) scale(45.5414 51.5275)">
<stop stop-color="white"/>
<stop offset="0.635417" stop-color="#DE141B" stop-opacity="0.77"/>
<stop offset="1" stop-color="#D50033"/>
</radialGradient>
<radialGradient id="paint3_radial_758_1905" cx="0" cy="0" r="1" gradientUnits="userSpaceOnUse" gradientTransform="translate(103.305 91.9348) rotate(90) scale(45.5414 51.5275)">
<stop stop-color="white"/>
<stop offset="0.635417" stop-color="#DE141B" stop-opacity="0.77"/>
<stop offset="1" stop-color="#D50033"/>
</radialGradient>
<linearGradient id="paint4_linear_758_1905" x1="103.305" y1="52.3735" x2="103.305" y2="131.496" gradientUnits="userSpaceOnUse">
<stop stop-color="#FFC5C5" stop-opacity="0"/>
<stop offset="0.213542" stop-color="#FF4040" stop-opacity="0.45"/>
<stop offset="0.447177" stop-color="#FF0000"/>
<stop offset="1" stop-color="#D40033" stop-opacity="0.86"/>
</linearGradient>
<radialGradient id="paint5_radial_758_1905" cx="0" cy="0" r="1" gradientUnits="userSpaceOnUse" gradientTransform="translate(103.432 92.0577) rotate(90.3137) scale(41.4887 43.0252)">
<stop stop-color="#FDF8F8"/>
<stop offset="1" stop-color="#FDF8F8" stop-opacity="0"/>
</radialGradient>
<radialGradient id="paint6_radial_758_1905" cx="0" cy="0" r="1" gradientUnits="userSpaceOnUse" gradientTransform="translate(103.454 89.511) rotate(90.0336) scale(35.9727 43.1735)">
<stop stop-color="white"/>
<stop offset="1" stop-color="white" stop-opacity="0"/>
</radialGradient>
<radialGradient id="paint7_radial_758_1905" cx="0" cy="0" r="1" gradientUnits="userSpaceOnUse" gradientTransform="translate(103.432 92.0577) rotate(90.3137) scale(41.4887 43.0252)">
<stop stop-color="#FDF8F8"/>
<stop offset="1" stop-color="#FDF8F8" stop-opacity="0"/>
</radialGradient>
<radialGradient id="paint8_radial_758_1905" cx="0" cy="0" r="1" gradientUnits="userSpaceOnUse" gradientTransform="translate(103.537 127.473) rotate(-81.5133) scale(31.4118 32.5255)">
<stop stop-color="#FB8377"/>
<stop offset="1" stop-color="#DE141B" stop-opacity="0"/>
</radialGradient>
<radialGradient id="paint9_radial_758_1905" cx="0" cy="0" r="1" gradientUnits="userSpaceOnUse" gradientTransform="translate(103.537 92.1583) rotate(94.5918) scale(30.6382 34.8645)">
<stop stop-color="white"/>
<stop offset="0.718735" stop-color="#FF9C7C" stop-opacity="0.08"/>
<stop offset="0.958174" stop-color="#FF8289"/>
</radialGradient>
<radialGradient id="paint10_radial_758_1905" cx="0" cy="0" r="1" gradientUnits="userSpaceOnUse" gradientTransform="translate(103.454 89.511) rotate(90.0336) scale(35.9727 43.1735)">
<stop stop-color="white"/>
<stop offset="1" stop-color="white" stop-opacity="0"/>
</radialGradient>
<linearGradient id="paint11_linear_758_1905" x1="103.015" y1="72.9365" x2="102.688" y2="94.3937" gradientUnits="userSpaceOnUse">
<stop stop-color="white" stop-opacity="0.65"/>
<stop offset="1" stop-color="#DE141B" stop-opacity="0"/>
</linearGradient>
<linearGradient id="paint12_linear_758_1905" x1="102.833" y1="29.0121" x2="103.006" y2="111.401" gradientUnits="userSpaceOnUse">
<stop stop-color="white"/>
<stop offset="0.761276" stop-color="#DE141B" stop-opacity="0.77"/>
<stop offset="1" stop-color="#D50033"/>
</linearGradient>
<radialGradient id="paint13_diamond_758_1905" cx="0" cy="0" r="1" gradientUnits="userSpaceOnUse" gradientTransform="translate(102.833 67.5536) rotate(89.747) scale(41.1449 48.189)">
<stop stop-color="white"/>
<stop offset="1" stop-color="#FF0000" stop-opacity="0.09"/>
</radialGradient>
<radialGradient id="paint14_diamond_758_1905" cx="0" cy="0" r="1" gradientUnits="userSpaceOnUse" gradientTransform="translate(103.073 71.5955) rotate(90) scale(8.04636 23.3242)">
<stop stop-color="white"/>
<stop offset="1" stop-color="#FF0000" stop-opacity="0.81"/>
</radialGradient>
<radialGradient id="paint15_radial_758_1905" cx="0" cy="0" r="1" gradientUnits="userSpaceOnUse" gradientTransform="translate(103.073 64.8902) rotate(-90) scale(12.0695 14.1239)">
<stop stop-color="#EFEFEF"/>
<stop offset="1" stop-color="white" stop-opacity="0"/>
</radialGradient>
<linearGradient id="paint16_linear_758_1905" x1="103.015" y1="72.9365" x2="103.015" y2="108.698" gradientUnits="userSpaceOnUse">
<stop stop-color="white"/>
<stop offset="1"/>
</linearGradient>
<radialGradient id="paint17_radial_758_1905" cx="0" cy="0" r="1" gradientUnits="userSpaceOnUse" gradientTransform="translate(114.301 91.9833) rotate(-90.9526) scale(10.7336 9.49352)">
<stop stop-color="#DE141B"/>
<stop offset="1" stop-opacity="0"/>
</radialGradient>
<radialGradient id="paint18_radial_758_1905" cx="0" cy="0" r="1" gradientUnits="userSpaceOnUse" gradientTransform="translate(115.193 92.6987) rotate(-130.847) scale(3.54679 3.41959)">
<stop stop-color="#FF0009"/>
<stop offset="1" stop-color="#FF0009" stop-opacity="0.01"/>
</radialGradient>
</defs>
</svg>
