<svg width="200" height="28" viewBox="0 0 200 28" fill="none" xmlns="http://www.w3.org/2000/svg">
<path d="M10.1958 27.3601C8.22777 27.3601 6.34377 27.0841 4.54377 26.5321C2.74377 25.9561 1.31577 25.2241 0.259766 24.3361L1.87977 20.7001C2.88777 21.4921 4.13577 22.1521 5.62377 22.6801C7.11177 23.2081 8.63577 23.4721 10.1958 23.4721C11.5158 23.4721 12.5838 23.3281 13.3998 23.0401C14.2158 22.7521 14.8158 22.3681 15.1998 21.8881C15.5838 21.3841 15.7758 20.8201 15.7758 20.1961C15.7758 19.4281 15.4998 18.8161 14.9478 18.3601C14.3958 17.8801 13.6758 17.5081 12.7878 17.2441C11.9238 16.9561 10.9518 16.6921 9.87177 16.4521C8.81577 16.2121 7.74777 15.9361 6.66777 15.6241C5.61177 15.2881 4.63977 14.8681 3.75177 14.3641C2.88777 13.8361 2.17977 13.1401 1.62777 12.2761C1.07577 11.4121 0.799766 10.3081 0.799766 8.96409C0.799766 7.59609 1.15977 6.34809 1.87977 5.22009C2.62377 4.06809 3.73977 3.15609 5.22777 2.48409C6.73977 1.78809 8.64777 1.44009 10.9518 1.44009C12.4638 1.44009 13.9638 1.63209 15.4518 2.01609C16.9398 2.40009 18.2358 2.95209 19.3398 3.67209L17.8638 7.30809C16.7358 6.63609 15.5718 6.14409 14.3718 5.83209C13.1718 5.49609 12.0198 5.32809 10.9158 5.32809C9.61977 5.32809 8.56377 5.48409 7.74777 5.79609C6.95577 6.10809 6.36777 6.51609 5.98377 7.02009C5.62377 7.52409 5.44377 8.10009 5.44377 8.74809C5.44377 9.51609 5.70777 10.1401 6.23577 10.6201C6.78777 11.0761 7.49577 11.4361 8.35977 11.7001C9.24777 11.9641 10.2318 12.2281 11.3118 12.4921C12.3918 12.7321 13.4598 13.0081 14.5158 13.3201C15.5958 13.6321 16.5678 14.0401 17.4318 14.5441C18.3198 15.0481 19.0278 15.7321 19.5558 16.5961C20.1078 17.4601 20.3838 18.5521 20.3838 19.8721C20.3838 21.2161 20.0118 22.4641 19.2678 23.6161C18.5478 24.7441 17.4318 25.6561 15.9198 26.3521C14.4078 27.0241 12.4998 27.3601 10.1958 27.3601Z" fill="#C40C1A"/>
<path d="M29.6684 27.2521C27.5564 27.2521 25.9244 26.7121 24.7724 25.6321C23.6204 24.5281 23.0444 22.9081 23.0444 20.7721V3.52809H27.5444V20.6641C27.5444 21.5761 27.7724 22.2841 28.2284 22.7881C28.7084 23.2921 29.3684 23.5441 30.2084 23.5441C31.2164 23.5441 32.0564 23.2801 32.7284 22.7521L33.9884 25.9561C33.4604 26.3881 32.8124 26.7121 32.0444 26.9281C31.2764 27.1441 30.4844 27.2521 29.6684 27.2521ZM19.8764 11.5201V7.92009H32.6924V11.5201H19.8764Z" fill="#C40C1A"/>
<path d="M35.5302 27.0001V7.77609H39.8142V13.0681L39.3102 11.5201C39.8862 10.2241 40.7862 9.24009 42.0102 8.56809C43.2582 7.89609 44.8062 7.56009 46.6542 7.56009V11.8441C46.4622 11.7961 46.2822 11.7721 46.1142 11.7721C45.9462 11.7481 45.7782 11.7361 45.6102 11.7361C43.9062 11.7361 42.5502 12.2401 41.5422 13.2481C40.5342 14.2321 40.0302 15.7081 40.0302 17.6761V27.0001H35.5302Z" fill="#C40C1A"/>
<path d="M57.1718 27.2521C55.0358 27.2521 53.1638 26.8321 51.5558 25.9921C49.9718 25.1281 48.7358 23.9521 47.8478 22.4641C46.9838 20.9761 46.5518 19.2841 46.5518 17.3881C46.5518 15.4681 46.9718 13.7761 47.8118 12.3121C48.6758 10.8241 49.8518 9.66009 51.3398 8.82009C52.8518 7.98009 54.5678 7.56009 56.4878 7.56009C58.3598 7.56009 60.0278 7.96809 61.4918 8.78409C62.9558 9.60009 64.1078 10.7521 64.9478 12.2401C65.7878 13.7281 66.2078 15.4801 66.2078 17.4961C66.2078 17.6881 66.1958 17.9041 66.1718 18.1441C66.1718 18.3841 66.1598 18.6121 66.1358 18.8281H50.1158V15.8401H63.7598L61.9958 16.7761C62.0198 15.6721 61.7918 14.7001 61.3118 13.8601C60.8318 13.0201 60.1718 12.3601 59.3318 11.8801C58.5158 11.4001 57.5678 11.1601 56.4878 11.1601C55.3838 11.1601 54.4118 11.4001 53.5718 11.8801C52.7558 12.3601 52.1078 13.0321 51.6278 13.8961C51.1718 14.7361 50.9438 15.7321 50.9438 16.8841V17.6041C50.9438 18.7561 51.2078 19.7761 51.7358 20.6641C52.2638 21.5521 53.0078 22.2361 53.9678 22.7161C54.9278 23.1961 56.0318 23.4361 57.2798 23.4361C58.3598 23.4361 59.3318 23.2681 60.1958 22.9321C61.0598 22.5961 61.8278 22.0681 62.4998 21.3481L64.9118 24.1201C64.0478 25.1281 62.9558 25.9081 61.6358 26.4601C60.3398 26.9881 58.8518 27.2521 57.1718 27.2521Z" fill="#C40C1A"/>
<path d="M74.3104 27.2521C72.7024 27.2521 71.1544 27.0481 69.6664 26.6401C68.2024 26.2081 67.0384 25.6921 66.1744 25.0921L67.9024 21.6721C68.7664 22.2241 69.7984 22.6801 70.9984 23.0401C72.1984 23.4001 73.3984 23.5801 74.5984 23.5801C76.0144 23.5801 77.0344 23.3881 77.6584 23.0041C78.3064 22.6201 78.6304 22.1041 78.6304 21.4561C78.6304 20.9281 78.4144 20.5321 77.9824 20.2681C77.5504 19.9801 76.9864 19.7641 76.2904 19.6201C75.5944 19.4761 74.8144 19.3441 73.9504 19.2241C73.1104 19.1041 72.2584 18.9481 71.3944 18.7561C70.5544 18.5401 69.7864 18.2401 69.0904 17.8561C68.3944 17.4481 67.8304 16.9081 67.3984 16.2361C66.9664 15.5641 66.7504 14.6761 66.7504 13.5721C66.7504 12.3481 67.0984 11.2921 67.7944 10.4041C68.4904 9.49209 69.4624 8.79609 70.7104 8.31609C71.9824 7.81209 73.4824 7.56009 75.2104 7.56009C76.5064 7.56009 77.8144 7.70409 79.1344 7.99209C80.4544 8.28009 81.5464 8.68809 82.4104 9.21609L80.6824 12.6361C79.7704 12.0841 78.8464 11.7121 77.9104 11.5201C76.9984 11.3041 76.0864 11.1961 75.1744 11.1961C73.8064 11.1961 72.7864 11.4001 72.1144 11.8081C71.4664 12.2161 71.1424 12.7321 71.1424 13.3561C71.1424 13.9321 71.3584 14.3641 71.7904 14.6521C72.2224 14.9401 72.7864 15.1681 73.4824 15.3361C74.1784 15.5041 74.9464 15.6481 75.7864 15.7681C76.6504 15.8641 77.5024 16.0201 78.3424 16.2361C79.1824 16.4521 79.9504 16.7521 80.6464 17.1361C81.3664 17.4961 81.9424 18.0121 82.3744 18.6841C82.8064 19.3561 83.0224 20.2321 83.0224 21.3121C83.0224 22.5121 82.6624 23.5561 81.9424 24.4441C81.2464 25.3321 80.2504 26.0281 78.9544 26.5321C77.6584 27.0121 76.1104 27.2521 74.3104 27.2521Z" fill="#C40C1A"/>
<path d="M90.6777 27.2521C89.0697 27.2521 87.5217 27.0481 86.0337 26.6401C84.5697 26.2081 83.4057 25.6921 82.5417 25.0921L84.2697 21.6721C85.1337 22.2241 86.1657 22.6801 87.3657 23.0401C88.5657 23.4001 89.7657 23.5801 90.9657 23.5801C92.3817 23.5801 93.4017 23.3881 94.0257 23.0041C94.6737 22.6201 94.9977 22.1041 94.9977 21.4561C94.9977 20.9281 94.7817 20.5321 94.3497 20.2681C93.9177 19.9801 93.3537 19.7641 92.6577 19.6201C91.9617 19.4761 91.1817 19.3441 90.3177 19.2241C89.4777 19.1041 88.6257 18.9481 87.7617 18.7561C86.9217 18.5401 86.1537 18.2401 85.4577 17.8561C84.7617 17.4481 84.1977 16.9081 83.7657 16.2361C83.3337 15.5641 83.1177 14.6761 83.1177 13.5721C83.1177 12.3481 83.4657 11.2921 84.1617 10.4041C84.8577 9.49209 85.8297 8.79609 87.0777 8.31609C88.3497 7.81209 89.8497 7.56009 91.5777 7.56009C92.8737 7.56009 94.1817 7.70409 95.5017 7.99209C96.8217 8.28009 97.9137 8.68809 98.7777 9.21609L97.0497 12.6361C96.1377 12.0841 95.2137 11.7121 94.2777 11.5201C93.3657 11.3041 92.4537 11.1961 91.5417 11.1961C90.1737 11.1961 89.1537 11.4001 88.4817 11.8081C87.8337 12.2161 87.5097 12.7321 87.5097 13.3561C87.5097 13.9321 87.7257 14.3641 88.1577 14.6521C88.5897 14.9401 89.1537 15.1681 89.8497 15.3361C90.5457 15.5041 91.3137 15.6481 92.1537 15.7681C93.0177 15.8641 93.8697 16.0201 94.7097 16.2361C95.5497 16.4521 96.3177 16.7521 97.0137 17.1361C97.7337 17.4961 98.3097 18.0121 98.7417 18.6841C99.1737 19.3561 99.3897 20.2321 99.3897 21.3121C99.3897 22.5121 99.0297 23.5561 98.3097 24.4441C97.6137 25.3321 96.6177 26.0281 95.3217 26.5321C94.0257 27.0121 92.4777 27.2521 90.6777 27.2521Z" fill="#C40C1A"/>
<path d="M106.649 27.0001V5.76009H98.297V1.80009H119.681V5.76009H111.329V27.0001H106.649Z" fill="#C40C1A"/>
<path d="M127.273 27.2521C125.305 27.2521 123.553 26.8321 122.017 25.9921C120.481 25.1281 119.269 23.9521 118.381 22.4641C117.493 20.9761 117.049 19.2841 117.049 17.3881C117.049 15.4681 117.493 13.7761 118.381 12.3121C119.269 10.8241 120.481 9.66009 122.017 8.82009C123.553 7.98009 125.305 7.56009 127.273 7.56009C129.265 7.56009 131.029 7.98009 132.565 8.82009C134.125 9.66009 135.337 10.8121 136.201 12.2761C137.089 13.7401 137.533 15.4441 137.533 17.3881C137.533 19.2841 137.089 20.9761 136.201 22.4641C135.337 23.9521 134.125 25.1281 132.565 25.9921C131.029 26.8321 129.265 27.2521 127.273 27.2521ZM127.273 23.4001C128.377 23.4001 129.361 23.1601 130.225 22.6801C131.089 22.2001 131.761 21.5041 132.241 20.5921C132.745 19.6801 132.997 18.6121 132.997 17.3881C132.997 16.1401 132.745 15.0721 132.241 14.1841C131.761 13.2721 131.089 12.5761 130.225 12.0961C129.361 11.6161 128.389 11.3761 127.309 11.3761C126.205 11.3761 125.221 11.6161 124.357 12.0961C123.517 12.5761 122.845 13.2721 122.341 14.1841C121.837 15.0721 121.585 16.1401 121.585 17.3881C121.585 18.6121 121.837 19.6801 122.341 20.5921C122.845 21.5041 123.517 22.2001 124.357 22.6801C125.221 23.1601 126.193 23.4001 127.273 23.4001Z" fill="#C40C1A"/>
<path d="M147.812 27.2521C146.18 27.2521 144.74 26.9521 143.492 26.3521C142.244 25.7281 141.272 24.7921 140.576 23.5441C139.88 22.2721 139.532 20.6761 139.532 18.7561V7.77609H144.032V18.1441C144.032 19.8721 144.416 21.1681 145.184 22.0321C145.976 22.8721 147.092 23.2921 148.532 23.2921C149.588 23.2921 150.5 23.0761 151.268 22.6441C152.06 22.2121 152.672 21.5641 153.104 20.7001C153.56 19.8361 153.788 18.7681 153.788 17.4961V7.77609H158.288V27.0001H154.004V21.8161L154.76 23.4001C154.112 24.6481 153.164 25.6081 151.916 26.2801C150.668 26.9281 149.3 27.2521 147.812 27.2521Z" fill="#C40C1A"/>
<path d="M170.84 27.2521C168.824 27.2521 167.024 26.8321 165.44 25.9921C163.88 25.1281 162.656 23.9521 161.768 22.4641C160.88 20.9761 160.436 19.2841 160.436 17.3881C160.436 15.4681 160.88 13.7761 161.768 12.3121C162.656 10.8241 163.88 9.66009 165.44 8.82009C167.024 7.98009 168.824 7.56009 170.84 7.56009C172.712 7.56009 174.356 7.94409 175.772 8.71209C177.212 9.45609 178.304 10.5601 179.048 12.0241L175.592 14.0401C175.016 13.1281 174.308 12.4561 173.468 12.0241C172.652 11.5921 171.764 11.3761 170.804 11.3761C169.7 11.3761 168.704 11.6161 167.816 12.0961C166.928 12.5761 166.232 13.2721 165.728 14.1841C165.224 15.0721 164.972 16.1401 164.972 17.3881C164.972 18.6361 165.224 19.7161 165.728 20.6281C166.232 21.5161 166.928 22.2001 167.816 22.6801C168.704 23.1601 169.7 23.4001 170.804 23.4001C171.764 23.4001 172.652 23.1841 173.468 22.7521C174.308 22.3201 175.016 21.6481 175.592 20.7361L179.048 22.7521C178.304 24.1921 177.212 25.3081 175.772 26.1001C174.356 26.8681 172.712 27.2521 170.84 27.2521Z" fill="#C40C1A"/>
<path d="M191.51 7.56009C193.046 7.56009 194.414 7.86009 195.614 8.46009C196.838 9.06009 197.798 9.98409 198.494 11.2321C199.19 12.4561 199.538 14.0401 199.538 15.9841V27.0001H195.038V16.5601C195.038 14.8561 194.63 13.5841 193.814 12.7441C193.022 11.9041 191.906 11.4841 190.466 11.4841C189.41 11.4841 188.474 11.7001 187.658 12.1321C186.842 12.5641 186.206 13.2121 185.75 14.0761C185.318 14.9161 185.102 15.9841 185.102 17.2801V27.0001H180.602V0.288086H185.102V12.9601L184.13 11.3761C184.802 10.1521 185.774 9.21609 187.046 8.56809C188.342 7.89609 189.83 7.56009 191.51 7.56009Z" fill="#C40C1A"/>
</svg>
