<svg width="27" height="24" viewBox="0 0 27 24" fill="none" xmlns="http://www.w3.org/2000/svg">
<path d="M1.60689 13.3333H10.3342C10.7199 13.3333 11.0899 13.1929 11.3627 12.9428C11.6355 12.6928 11.7887 12.3536 11.7887 12V1.33333C11.7887 0.979711 11.6355 0.640573 11.3627 0.390524C11.0899 0.140476 10.7199 0 10.3342 0H1.60689C1.22112 0 0.85115 0.140476 0.57837 0.390524C0.30559 0.640573 0.152344 0.979711 0.152344 1.33333V12C0.152344 12.3536 0.30559 12.6928 0.57837 12.9428C0.85115 13.1929 1.22112 13.3333 1.60689 13.3333ZM0.152344 22.6667C0.152344 23.0203 0.30559 23.3594 0.57837 23.6095C0.85115 23.8595 1.22112 24 1.60689 24H10.3342C10.7199 24 11.0899 23.8595 11.3627 23.6095C11.6355 23.3594 11.7887 23.0203 11.7887 22.6667V17.3333C11.7887 16.9797 11.6355 16.6406 11.3627 16.3905C11.0899 16.1405 10.7199 16 10.3342 16H1.60689C1.22112 16 0.85115 16.1405 0.57837 16.3905C0.30559 16.6406 0.152344 16.9797 0.152344 17.3333V22.6667ZM14.6978 22.6667C14.6978 23.0203 14.851 23.3594 15.1238 23.6095C15.3966 23.8595 15.7666 24 16.1523 24H24.8796C25.2654 24 25.6354 23.8595 25.9081 23.6095C26.1809 23.3594 26.3342 23.0203 26.3342 22.6667V13.3333C26.3342 12.9797 26.1809 12.6406 25.9081 12.3905C25.6354 12.1405 25.2654 12 24.8796 12H16.1523C15.7666 12 15.3966 12.1405 15.1238 12.3905C14.851 12.6406 14.6978 12.9797 14.6978 13.3333V22.6667ZM16.1523 9.33333H24.8796C25.2654 9.33333 25.6354 9.19286 25.9081 8.94281C26.1809 8.69276 26.3342 8.35362 26.3342 8V1.33333C26.3342 0.979711 26.1809 0.640573 25.9081 0.390524C25.6354 0.140476 25.2654 0 24.8796 0H16.1523C15.7666 0 15.3966 0.140476 15.1238 0.390524C14.851 0.640573 14.6978 0.979711 14.6978 1.33333V8C14.6978 8.35362 14.851 8.69276 15.1238 8.94281C15.3966 9.19286 15.7666 9.33333 16.1523 9.33333Z" fill="white"/>
</svg>
