<svg width="19" height="29" viewBox="0 0 19 29" fill="none" xmlns="http://www.w3.org/2000/svg">
<path fill-rule="evenodd" clip-rule="evenodd" d="M9.01562 0C9.56791 0 10.0156 0.447715 10.0156 1V5.76471C10.0156 6.31699 9.56791 6.76471 9.01562 6.76471C8.46334 6.76471 8.01562 6.31699 8.01562 5.76471V1C8.01562 0.447715 8.46334 0 9.01562 0ZM0.817333 2.58578C1.25727 2.2519 1.88457 2.33788 2.21845 2.77781L4.32782 5.55722C4.6617 5.99716 4.57573 6.62446 4.13579 6.95834C3.69586 7.29222 3.06856 7.20624 2.73468 6.76631L0.625302 3.9869C0.291422 3.54696 0.377398 2.91966 0.817333 2.58578ZM17.2827 2.64301C17.691 3.01488 17.7206 3.64736 17.3487 4.05568L14.8175 6.83509C14.4456 7.24342 13.8131 7.27298 13.4048 6.90111C12.9965 6.52924 12.9669 5.89676 13.3388 5.48844L15.87 2.70902C16.2419 2.3007 16.8744 2.27114 17.2827 2.64301ZM8.63626 9.14706C4.97116 9.14706 2 12.1182 2 15.7833C2 17.7052 2.83314 19.5326 4.28393 20.793L6.241 22.4933C6.77278 22.9553 7.15213 23.5572 7.34324 24.2206H10.2713C10.4711 23.5522 10.8692 22.951 11.4242 22.5032L13.6045 20.7443C15.1391 19.5063 16.0312 17.6404 16.0312 15.6686C16.0312 12.0668 13.1115 9.14706 9.50973 9.14706H8.63626ZM10.125 26.2206H7.48438V27H10.125V26.2206ZM0 15.7833C0 11.0136 3.86659 7.14706 8.63626 7.14706H9.50973C14.216 7.14706 18.0312 10.9623 18.0312 15.6686C18.0312 18.2451 16.8655 20.6832 14.8602 22.301L12.68 24.0598C12.329 24.3429 12.125 24.7697 12.125 25.2206V28C12.125 28.5523 11.6773 29 11.125 29H6.48438C5.93209 29 5.48438 28.5523 5.48438 28V25.2206C5.48438 24.7535 5.2819 24.3094 4.92932 24.0031L2.97225 22.3028C1.08423 20.6626 0 18.2844 0 15.7833Z" fill="white"/>
</svg>
