<svg width="18" height="23" viewBox="0 0 18 23" fill="none" xmlns="http://www.w3.org/2000/svg">
<path fill-rule="evenodd" clip-rule="evenodd" d="M3.18182 2C2.87848 2 2.58111 2.12398 2.35694 2.35516C2.13175 2.58738 2 2.90872 2 3.25V19.5L8.12867 15.8885C8.44196 15.7038 8.83077 15.7038 9.14406 15.8885L15.2727 19.5V3.25C15.2727 2.90872 15.141 2.58738 14.9158 2.35516C14.6916 2.12398 14.3942 2 14.0909 2H3.18182ZM0.921139 0.962864C1.51531 0.350128 2.32784 0 3.18182 0H14.0909C14.9449 0 15.7574 0.350128 16.3516 0.962864C16.9447 1.57455 17.2727 2.39781 17.2727 3.25V21.25C17.2727 21.6089 17.0804 21.9402 16.7689 22.1182C16.4573 22.2963 16.0742 22.2937 15.765 22.1115L8.63636 17.9107L1.50769 22.1115C1.19852 22.2937 0.815436 22.2963 0.503861 22.1182C0.192286 21.9402 0 21.6089 0 21.25V3.25C0 2.39781 0.327985 1.57455 0.921139 0.962864Z" fill="white"/>
</svg>
