<svg width="20" height="18" viewBox="0 0 20 18" fill="none" xmlns="http://www.w3.org/2000/svg">
<path fill-rule="evenodd" clip-rule="evenodd" d="M12.583 4.4165C12.583 4.00229 12.9188 3.6665 13.333 3.6665H18.333C18.7472 3.6665 19.083 4.00229 19.083 4.4165C19.083 4.83072 18.7472 5.1665 18.333 5.1665H13.333C12.9188 5.1665 12.583 4.83072 12.583 4.4165Z" fill="white"/>
<path fill-rule="evenodd" clip-rule="evenodd" d="M0.916504 4.4165C0.916504 4.00229 1.25229 3.6665 1.6665 3.6665H4.99984C5.41405 3.6665 5.74984 4.00229 5.74984 4.4165C5.74984 4.83072 5.41405 5.1665 4.99984 5.1665H1.6665C1.25229 5.1665 0.916504 4.83072 0.916504 4.4165Z" fill="white"/>
<path fill-rule="evenodd" clip-rule="evenodd" d="M8.33317 2.25C7.13655 2.25 6.1665 3.22005 6.1665 4.41667C6.1665 5.61328 7.13655 6.58333 8.33317 6.58333C9.52979 6.58333 10.4998 5.61328 10.4998 4.41667C10.4998 3.22005 9.52979 2.25 8.33317 2.25ZM4.6665 4.41667C4.6665 2.39162 6.30813 0.75 8.33317 0.75C10.3582 0.75 11.9998 2.39162 11.9998 4.41667C11.9998 6.44171 10.3582 8.08333 8.33317 8.08333C6.30813 8.08333 4.6665 6.44171 4.6665 4.41667Z" fill="white"/>
<path fill-rule="evenodd" clip-rule="evenodd" d="M14.25 13.5835C14.25 13.1693 14.5858 12.8335 15 12.8335H18.3333C18.7475 12.8335 19.0833 13.1693 19.0833 13.5835C19.0833 13.9977 18.7475 14.3335 18.3333 14.3335H15C14.5858 14.3335 14.25 13.9977 14.25 13.5835Z" fill="white"/>
<path fill-rule="evenodd" clip-rule="evenodd" d="M0.916504 13.5835C0.916504 13.1693 1.25229 12.8335 1.6665 12.8335H6.6665C7.08072 12.8335 7.4165 13.1693 7.4165 13.5835C7.4165 13.9977 7.08072 14.3335 6.6665 14.3335H1.6665C1.25229 14.3335 0.916504 13.9977 0.916504 13.5835Z" fill="white"/>
<path fill-rule="evenodd" clip-rule="evenodd" d="M11.6667 11.4165C10.47 11.4165 9.5 12.3866 9.5 13.5832C9.5 14.7798 10.47 15.7498 11.6667 15.7498C12.8633 15.7498 13.8333 14.7798 13.8333 13.5832C13.8333 12.3866 12.8633 11.4165 11.6667 11.4165ZM8 13.5832C8 11.5581 9.64162 9.9165 11.6667 9.9165C13.6917 9.9165 15.3333 11.5581 15.3333 13.5832C15.3333 15.6082 13.6917 17.2498 11.6667 17.2498C9.64162 17.2498 8 15.6082 8 13.5832Z" fill="white"/>
</svg>
