<svg width="25" height="26" viewBox="0 0 25 26" fill="none" xmlns="http://www.w3.org/2000/svg">
<path d="M18.8114 7.83868C18.7284 7.82484 18.6316 7.82484 18.5486 7.83868C16.6394 7.76951 15.1177 6.20623 15.1177 4.26944C15.1177 2.29114 16.7086 0.700195 18.6869 0.700195C20.6652 0.700195 22.2561 2.30497 22.2561 4.26944C22.2423 6.20623 20.7205 7.76951 18.8114 7.83868Z" fill="white"/>
<path d="M17.3867 16.2499C19.282 16.5681 21.371 16.236 22.8374 15.2538C24.7881 13.9534 24.7881 11.8229 22.8374 10.5225C21.3572 9.54026 19.2405 9.20823 17.3452 9.54025" fill="white"/>
<path d="M5.48868 7.83868C5.57168 7.82484 5.66852 7.82484 5.75153 7.83868C7.66065 7.76951 9.18242 6.20623 9.18242 4.26944C9.18242 2.29114 7.59149 0.700195 5.61319 0.700195C3.63489 0.700195 2.04395 2.30497 2.04395 4.26944C2.05778 6.20623 3.57955 7.76951 5.48868 7.83868Z" fill="white"/>
<path d="M6.91367 16.2499C5.01837 16.5681 2.9294 16.236 1.46297 15.2538C-0.487658 13.9534 -0.487658 11.8229 1.46297 10.5225C2.94324 9.54026 5.05988 9.20823 6.95517 9.54025" fill="white"/>
<path d="M12.1708 16.513C12.0878 16.4992 11.991 16.4992 11.9079 16.513C9.99882 16.4438 8.47705 14.8805 8.47705 12.9438C8.47705 10.9655 10.068 9.37451 12.0463 9.37451C14.0246 9.37451 15.6155 10.9793 15.6155 12.9438C15.6017 14.8805 14.0799 16.4577 12.1708 16.513Z" fill="white"/>
<path d="M8.1451 19.2107C6.19447 20.5111 6.19447 22.6416 8.1451 23.942C10.3586 25.4222 13.9832 25.4222 16.1966 23.942C18.1473 22.6416 18.1473 20.5111 16.1966 19.2107C13.997 17.7442 10.3586 17.7442 8.1451 19.2107Z" fill="white"/>
</svg>
